<svg width="880" height="640" xmlns="http://www.w3.org/2000/svg" xmlns:xlink="http://www.w3.org/1999/xlink" version="1.1" baseProfile="full" viewBox="0 0 880 640">
<rect width="880" height="640" x="0" y="0" fill="#0d0d0f"></rect>
<path d="M50.5 40A2.5 2.5 0 0 1 53 42.5L53 59.5A2.5 2.5 0 0 1 50.5 62A2.5 2.5 0 0 1 48 59.5L48 42.5A2.5 2.5 0 0 1 50.5 40" fill="#FF6B1A" class="zr0-cls-0"></path>
<text dominant-baseline="central" text-anchor="start" style="font-size:21px;font-family:'PingFang SC', 'Microsoft YaHei', 'Noto Sans CJK SC', -apple-system, sans-serif;font-weight:700;" y="10.5" transform="translate(65 41)" fill="rgb(255,255,255)" fill-opacity="0.92">地区维度（FY2025）</text>
<text dominant-baseline="central" text-anchor="start" style="font-size:14px;font-family:'PingFang SC', 'Microsoft YaHei', 'Noto Sans CJK SC', -apple-system, sans-serif;" y="7" transform="translate(412 282)" fill="rgb(255,255,255)" fill-opacity="0.62">海外占比</text>
<text dominant-baseline="central" text-anchor="start" style="font-size:36px;font-family:'PingFang SC', 'Microsoft YaHei', 'Noto Sans CJK SC', -apple-system, sans-serif;font-weight:700;" y="18" transform="translate(388.7 308)" fill="rgb(255,255,255)" fill-opacity="0.92">43.8%</text>
<path d="M48 550L832 550" fill="none" pointer-events="visible" stroke="rgb(255,255,255)" stroke-opacity="0.08" class="zr0-cls-1"></path>
<path d="M49.5 565A1.5 1.5 0 0 1 51 566.5L51 576.5A1.5 1.5 0 0 1 49.5 578A1.5 1.5 0 0 1 48 576.5L48 566.5A1.5 1.5 0 0 1 49.5 565" fill="#FFB37A" class="zr0-cls-2"></path>
<path d="M0 0l370.3 0l0 18l-370.2 0Z" transform="translate(60 566)" fill="none" pointer-events="visible" class="zr0-cls-1"></path>
<text dominant-baseline="central" text-anchor="start" style="font-size:12.5px;font-family:'PingFang SC', 'Microsoft YaHei', 'Noto Sans CJK SC', -apple-system, sans-serif;" xml:space="preserve" y="9" transform="translate(60 566)" fill="rgb(255,255,255)" fill-opacity="0.62">海外占比从 FY2024 的 31.8% 快速提升至 43.8%，是结构性变化。</text>
<path d="M646 356.6C659 359.2 659 359.2 663.7 359.7C668.5 360.1 668.5 360.1 675.7 360.1" fill="none" pointer-events="visible" stroke="rgb(255,255,255)" stroke-opacity="0.22" class="zr0-cls-1"></path>
<path d="M256 417.2C244.4 423.5 244.4 423.5 239.9 424.7C235.4 425.8 235.4 425.8 228.2 425.8" fill="none" pointer-events="visible" stroke="rgb(255,255,255)" stroke-opacity="0.22" class="zr0-cls-1"></path>
<path d="M286.5 172.7C276.8 163.7 276.8 163.7 272.7 162.1C268.5 160.4 268.5 160.4 261.3 160.4" fill="none" pointer-events="visible" stroke="rgb(255,255,255)" stroke-opacity="0.22" class="zr0-cls-1"></path>
<path d="M414.3 107.6C412.7 94.5 412.7 94.5 410 92.1C407.3 89.7 407.3 89.7 400.1 89.7" fill="none" pointer-events="visible" stroke="rgb(255,255,255)" stroke-opacity="0.22" class="zr0-cls-1"></path>
<path d="M440 112.1A6 6 0 0 1 446.2 106.1A210 210 0 1 1 366 512.5A6 6 0 0 1 362.6 504.6L380.8 460.2A6 6 0 0 1 388.4 456.8A150 150 0 1 0 445.8 166.1A6 6 0 0 1 440 160.1Z" fill="#FF6B1A" stroke="#0d0d0f" stroke-width="3" stroke-linejoin="round" ecmeta_series_index="0" ecmeta_data_index="0" ecmeta_ssr_type="chart" class="zr0-cls-0"></path>
<path d="M362.6 504.6A6 6 0 0 1 354.6 507.8A210 210 0 0 1 232.2 285.3A6 6 0 0 1 239.2 280.3L286.5 288.7A6 6 0 0 1 291.4 295.4A150 150 0 0 0 377.7 452.5A6 6 0 0 1 380.8 460.2Z" fill="#FF8C42" stroke="#0d0d0f" stroke-width="3" stroke-linejoin="round" ecmeta_series_index="0" ecmeta_data_index="1" ecmeta_ssr_type="chart" class="zr0-cls-3"></path>
<path d="M239.2 280.3A6 6 0 0 1 234.4 273.2A210 210 0 0 1 383.1 113.9A6 6 0 0 1 390.5 118.2L402.2 164.8A6 6 0 0 1 398 172A150 150 0 0 0 293.4 284.1A6 6 0 0 1 286.5 288.7Z" fill="#FFB37A" stroke="#0d0d0f" stroke-width="3" stroke-linejoin="round" ecmeta_series_index="0" ecmeta_data_index="2" ecmeta_ssr_type="chart" class="zr0-cls-2"></path>
<path d="M390.5 118.2A6 6 0 0 1 395.1 110.9A210 210 0 0 1 433.8 106.1A6 6 0 0 1 440 112.1L440 160.1A6 6 0 0 1 434.2 166.1A150 150 0 0 0 409.2 169.2A6 6 0 0 1 402.2 164.8Z" fill="rgb(255,255,255)" fill-opacity="0.22" stroke="#0d0d0f" stroke-width="3" stroke-linejoin="round" ecmeta_series_index="0" ecmeta_data_index="3" ecmeta_ssr_type="chart" class="zr0-cls-4"></path>
<path d="M0 -13.5l48 0l0 12l-48 0Z" transform="translate(680.6886 360.1293)" fill="none" pointer-events="visible" class="zr0-cls-1"></path>
<text dominant-baseline="central" text-anchor="start" style="font-size:12px;font-family:'PingFang SC', 'Microsoft YaHei', 'Noto Sans CJK SC', -apple-system, sans-serif;" y="-7.5" transform="translate(680.6886 360.1293)" fill="rgb(255,255,255)" fill-opacity="0.62">中国大陆</text>
<text dominant-baseline="central" text-anchor="start" style="font-size:15px;font-family:'PingFang SC', 'Microsoft YaHei', 'Noto Sans CJK SC', -apple-system, sans-serif;font-weight:700;" y="10" transform="translate(680.6886 360.1293)" fill="rgb(255,255,255)" fill-opacity="0.92">56.2%</text>
<text dominant-baseline="central" text-anchor="start" style="font-size:11.5px;font-family:'PingFang SC', 'Microsoft YaHei', 'Noto Sans CJK SC', -apple-system, sans-serif;" xml:space="preserve" x="42.75" y="10" transform="translate(680.6886 360.1293)" fill="rgb(255,255,255)" fill-opacity="0.38"> · 208.5亿</text>
<path d="M-24 -13.5l24 0l0 12l-24 0Z" transform="translate(223.2021 425.8398)" fill="none" pointer-events="visible" class="zr0-cls-1"></path>
<text dominant-baseline="central" text-anchor="end" style="font-size:12px;font-family:'PingFang SC', 'Microsoft YaHei', 'Noto Sans CJK SC', -apple-system, sans-serif;" y="-7.5" transform="translate(223.2021 425.8398)" fill="rgb(255,255,255)" fill-opacity="0.62">亚太</text>
<text dominant-baseline="central" text-anchor="end" style="font-size:11.5px;font-family:'PingFang SC', 'Microsoft YaHei', 'Noto Sans CJK SC', -apple-system, sans-serif;" xml:space="preserve" y="10" transform="translate(223.2021 425.8398)" fill="rgb(255,255,255)" fill-opacity="0.38"> · 80.1亿</text>
<text dominant-baseline="central" text-anchor="end" style="font-size:15px;font-family:'PingFang SC', 'Microsoft YaHei', 'Noto Sans CJK SC', -apple-system, sans-serif;font-weight:700;" x="-51.980000000000004" y="10" transform="translate(223.2021 425.8398)" fill="rgb(255,255,255)" fill-opacity="0.92">21.6%</text>
<path d="M-24 -13.5l24 0l0 12l-24 0Z" transform="translate(256.3056 160.4462)" fill="none" pointer-events="visible" class="zr0-cls-1"></path>
<text dominant-baseline="central" text-anchor="end" style="font-size:12px;font-family:'PingFang SC', 'Microsoft YaHei', 'Noto Sans CJK SC', -apple-system, sans-serif;" y="-7.5" transform="translate(256.3056 160.4462)" fill="rgb(255,255,255)" fill-opacity="0.62">美洲</text>
<text dominant-baseline="central" text-anchor="end" style="font-size:11.5px;font-family:'PingFang SC', 'Microsoft YaHei', 'Noto Sans CJK SC', -apple-system, sans-serif;" xml:space="preserve" y="10" transform="translate(256.3056 160.4462)" fill="rgb(255,255,255)" fill-opacity="0.38"> · 68.1亿</text>
<text dominant-baseline="central" text-anchor="end" style="font-size:15px;font-family:'PingFang SC', 'Microsoft YaHei', 'Noto Sans CJK SC', -apple-system, sans-serif;font-weight:700;" x="-51.980000000000004" y="10" transform="translate(256.3056 160.4462)" fill="rgb(255,255,255)" fill-opacity="0.92">18.3%</text>
<path d="M-60 -13.5l60 0l0 12l-60 0Z" transform="translate(395.1348 89.7092)" fill="none" pointer-events="visible" class="zr0-cls-1"></path>
<text dominant-baseline="central" text-anchor="end" style="font-size:12px;font-family:'PingFang SC', 'Microsoft YaHei', 'Noto Sans CJK SC', -apple-system, sans-serif;" y="-7.5" transform="translate(395.1348 89.7092)" fill="rgb(255,255,255)" fill-opacity="0.62">欧洲及其他</text>
<text dominant-baseline="central" text-anchor="end" style="font-size:11.5px;font-family:'PingFang SC', 'Microsoft YaHei', 'Noto Sans CJK SC', -apple-system, sans-serif;" xml:space="preserve" y="10" transform="translate(395.1348 89.7092)" fill="rgb(255,255,255)" fill-opacity="0.38"> · 14.5亿</text>
<text dominant-baseline="central" text-anchor="end" style="font-size:15px;font-family:'PingFang SC', 'Microsoft YaHei', 'Noto Sans CJK SC', -apple-system, sans-serif;font-weight:700;" x="-51.980000000000004" y="10" transform="translate(395.1348 89.7092)" fill="rgb(255,255,255)" fill-opacity="0.92">3.9%</text>
<style ><![CDATA[
.zr0-cls-0:hover {
cursor:pointer;
fill:rgba(255,117,28,1);
}
.zr0-cls-1:hover {
cursor:pointer;
}
.zr0-cls-2:hover {
cursor:pointer;
fill:rgba(255,196,134,1);
}
.zr0-cls-3:hover {
cursor:pointer;
fill:rgba(255,154,72,1);
}
.zr0-cls-4:hover {
cursor:pointer;
fill:rgba(255,255,255,0.22);
}

]]>

</style>
</svg>