<svg width="880" height="430" xmlns="http://www.w3.org/2000/svg" xmlns:xlink="http://www.w3.org/1999/xlink" version="1.1" baseProfile="full" viewBox="0 0 880 430">
<rect width="880" height="430" x="0" y="0" fill="#0d0d0f"></rect>
<path d="M50.5 40A2.5 2.5 0 0 1 53 42.5L53 59.5A2.5 2.5 0 0 1 50.5 62A2.5 2.5 0 0 1 48 59.5L48 42.5A2.5 2.5 0 0 1 50.5 40" fill="#FF6B1A" class="zr1-cls-5"></path>
<text dominant-baseline="central" text-anchor="start" style="font-size:21px;font-family:'PingFang SC', 'Microsoft YaHei', 'Noto Sans CJK SC', -apple-system, sans-serif;font-weight:700;" xml:space="preserve" y="10.5" transform="translate(65 41)" fill="rgb(255,255,255)" fill-opacity="0.92">IP 维度（FY2025）</text>
<text dominant-baseline="central" text-anchor="start" style="font-size:11.5px;font-family:'PingFang SC', 'Microsoft YaHei', 'Noto Sans CJK SC', -apple-system, sans-serif;" xml:space="preserve" y="5.75" transform="translate(733.56 50)" fill="rgb(255,255,255)" fill-opacity="0.38">占营收比重 · 亿元</text>
<path d="M51 238L55 238A3 3 0 0 1 58 241L58 245A3 3 0 0 1 55 248L51 248A3 3 0 0 1 48 245L48 241A3 3 0 0 1 51 238" fill="#FF6B1A" class="zr1-cls-5"></path>
<text dominant-baseline="central" text-anchor="start" style="font-size:12.5px;font-family:'PingFang SC', 'Microsoft YaHei', 'Noto Sans CJK SC', -apple-system, sans-serif;" xml:space="preserve" y="6.25" transform="translate(66 236)" fill="rgb(255,255,255)" fill-opacity="0.62">THE MONSTERS</text>
<text dominant-baseline="central" text-anchor="start" style="font-size:18px;font-family:'PingFang SC', 'Microsoft YaHei', 'Noto Sans CJK SC', -apple-system, sans-serif;font-weight:700;" y="9" transform="translate(66 260)" fill="rgb(255,255,255)" fill-opacity="0.92">38.1%</text>
<text dominant-baseline="central" text-anchor="start" style="font-size:12px;font-family:'PingFang SC', 'Microsoft YaHei', 'Noto Sans CJK SC', -apple-system, sans-serif;" y="6" transform="translate(129.8 266)" fill="rgb(255,255,255)" fill-opacity="0.38">141.6亿</text>
<path d="M312.3 238L316.3 238A3 3 0 0 1 319.3 241L319.3 245A3 3 0 0 1 316.3 248L312.3 248A3 3 0 0 1 309.3 245L309.3 241A3 3 0 0 1 312.3 238" fill="#FF8C42" class="zr1-cls-6"></path>
<text dominant-baseline="central" text-anchor="start" style="font-size:12.5px;font-family:'PingFang SC', 'Microsoft YaHei', 'Noto Sans CJK SC', -apple-system, sans-serif;" y="6.25" transform="translate(327.3333 236)" fill="rgb(255,255,255)" fill-opacity="0.62">SKULLPANDA</text>
<text dominant-baseline="central" text-anchor="start" style="font-size:18px;font-family:'PingFang SC', 'Microsoft YaHei', 'Noto Sans CJK SC', -apple-system, sans-serif;font-weight:700;" y="9" transform="translate(327.3333 260)" fill="rgb(255,255,255)" fill-opacity="0.92">9.5%</text>
<text dominant-baseline="central" text-anchor="start" style="font-size:12px;font-family:'PingFang SC', 'Microsoft YaHei', 'Noto Sans CJK SC', -apple-system, sans-serif;" y="6" transform="translate(379.9733 266)" fill="rgb(255,255,255)" fill-opacity="0.38">35.4亿</text>
<path d="M573.7 238L577.7 238A3 3 0 0 1 580.7 241L580.7 245A3 3 0 0 1 577.7 248L573.7 248A3 3 0 0 1 570.7 245L570.7 241A3 3 0 0 1 573.7 238" fill="#FFB37A" class="zr1-cls-7"></path>
<text dominant-baseline="central" text-anchor="start" style="font-size:12.5px;font-family:'PingFang SC', 'Microsoft YaHei', 'Noto Sans CJK SC', -apple-system, sans-serif;" y="6.25" transform="translate(588.6667 236)" fill="rgb(255,255,255)" fill-opacity="0.62">CRYBABY</text>
<text dominant-baseline="central" text-anchor="start" style="font-size:18px;font-family:'PingFang SC', 'Microsoft YaHei', 'Noto Sans CJK SC', -apple-system, sans-serif;font-weight:700;" y="9" transform="translate(588.6667 260)" fill="rgb(255,255,255)" fill-opacity="0.92">7.9%</text>
<text dominant-baseline="central" text-anchor="start" style="font-size:12px;font-family:'PingFang SC', 'Microsoft YaHei', 'Noto Sans CJK SC', -apple-system, sans-serif;" y="6" transform="translate(641.3067 266)" fill="rgb(255,255,255)" fill-opacity="0.38">29.3亿</text>
<path d="M51 320L55 320A3 3 0 0 1 58 323L58 327A3 3 0 0 1 55 330L51 330A3 3 0 0 1 48 327L48 323A3 3 0 0 1 51 320" fill="#FFD9B8" class="zr1-cls-8"></path>
<text dominant-baseline="central" text-anchor="start" style="font-size:12.5px;font-family:'PingFang SC', 'Microsoft YaHei', 'Noto Sans CJK SC', -apple-system, sans-serif;" y="6.25" transform="translate(66 318)" fill="rgb(255,255,255)" fill-opacity="0.62">MOLLY</text>
<text dominant-baseline="central" text-anchor="start" style="font-size:18px;font-family:'PingFang SC', 'Microsoft YaHei', 'Noto Sans CJK SC', -apple-system, sans-serif;font-weight:700;" y="9" transform="translate(66 342)" fill="rgb(255,255,255)" fill-opacity="0.92">7.8%</text>
<text dominant-baseline="central" text-anchor="start" style="font-size:12px;font-family:'PingFang SC', 'Microsoft YaHei', 'Noto Sans CJK SC', -apple-system, sans-serif;" y="6" transform="translate(118.64 348)" fill="rgb(255,255,255)" fill-opacity="0.38">29亿</text>
<path d="M312.3 320L316.3 320A3 3 0 0 1 319.3 323L319.3 327A3 3 0 0 1 316.3 330L312.3 330A3 3 0 0 1 309.3 327L309.3 323A3 3 0 0 1 312.3 320" fill="#C97B4A" class="zr1-cls-9"></path>
<text dominant-baseline="central" text-anchor="start" style="font-size:12.5px;font-family:'PingFang SC', 'Microsoft YaHei', 'Noto Sans CJK SC', -apple-system, sans-serif;" y="6.25" transform="translate(327.3333 318)" fill="rgb(255,255,255)" fill-opacity="0.62">DIMOO</text>
<text dominant-baseline="central" text-anchor="start" style="font-size:18px;font-family:'PingFang SC', 'Microsoft YaHei', 'Noto Sans CJK SC', -apple-system, sans-serif;font-weight:700;" y="9" transform="translate(327.3333 342)" fill="rgb(255,255,255)" fill-opacity="0.92">7.5%</text>
<text dominant-baseline="central" text-anchor="start" style="font-size:12px;font-family:'PingFang SC', 'Microsoft YaHei', 'Noto Sans CJK SC', -apple-system, sans-serif;" y="6" transform="translate(379.9733 348)" fill="rgb(255,255,255)" fill-opacity="0.38">27.8亿</text>
<path d="M573.7 320L577.7 320A3 3 0 0 1 580.7 323L580.7 327A3 3 0 0 1 577.7 330L573.7 330A3 3 0 0 1 570.7 327L570.7 323A3 3 0 0 1 573.7 320" fill="rgb(255,255,255)" fill-opacity="0.22" class="zr1-cls-10"></path>
<text dominant-baseline="central" text-anchor="start" style="font-size:12.5px;font-family:'PingFang SC', 'Microsoft YaHei', 'Noto Sans CJK SC', -apple-system, sans-serif;" y="6.25" transform="translate(588.6667 318)" fill="rgb(255,255,255)" fill-opacity="0.62">其他IP</text>
<text dominant-baseline="central" text-anchor="start" style="font-size:18px;font-family:'PingFang SC', 'Microsoft YaHei', 'Noto Sans CJK SC', -apple-system, sans-serif;font-weight:700;" y="9" transform="translate(588.6667 342)" fill="rgb(255,255,255)" fill-opacity="0.92">29.2%</text>
<text dominant-baseline="central" text-anchor="start" style="font-size:12px;font-family:'PingFang SC', 'Microsoft YaHei', 'Noto Sans CJK SC', -apple-system, sans-serif;" y="6" transform="translate(652.4667 348)" fill="rgb(255,255,255)" fill-opacity="0.38">108.1亿</text>
<path d="M64 129L345.7 129L345.7 193L64 193A15 15 0 0 1 49 178L49 144A15 15 0 0 1 64 129" fill="#FF6B1A" stroke="#0d0d0f" stroke-width="2" ecmeta_series_index="0" ecmeta_data_index="0" ecmeta_ssr_type="chart" class="zr1-cls-5"></path>
<path d="M347.7 129l72.5 0l0 64l-72.5 0Z" fill="#FF8C42" stroke="#0d0d0f" stroke-width="2" ecmeta_series_index="1" ecmeta_data_index="0" ecmeta_ssr_type="chart" class="zr1-cls-6"></path>
<path d="M422.2 129l59.9 0l0 64l-59.9 0Z" fill="#FFB37A" stroke="#0d0d0f" stroke-width="2" ecmeta_series_index="2" ecmeta_data_index="0" ecmeta_ssr_type="chart" class="zr1-cls-7"></path>
<path d="M484.1 129l59.2 0l0 64l-59.2 0Z" fill="#FFD9B8" stroke="#0d0d0f" stroke-width="2" ecmeta_series_index="3" ecmeta_data_index="0" ecmeta_ssr_type="chart" class="zr1-cls-8"></path>
<path d="M545.3 129l56.8 0l0 64l-56.8 0Z" fill="#C97B4A" stroke="#0d0d0f" stroke-width="2" ecmeta_series_index="4" ecmeta_data_index="0" ecmeta_ssr_type="chart" class="zr1-cls-9"></path>
<path d="M604.1 129L816 129A15 15 0 0 1 831 144L831 178A15 15 0 0 1 816 193L604.1 193L604.1 129" fill="rgb(255,255,255)" fill-opacity="0.22" stroke="#0d0d0f" stroke-width="2" ecmeta_series_index="5" ecmeta_data_index="0" ecmeta_ssr_type="chart" class="zr1-cls-10"></path>
<text dominant-baseline="central" text-anchor="middle" style="font-size:12.5px;font-family:'PingFang SC', 'Microsoft YaHei', 'Noto Sans CJK SC', -apple-system, sans-serif;font-weight:600;" transform="translate(197.352 161)" fill="rgb(255,255,255)" fill-opacity="0.95">38.1%</text>
<text dominant-baseline="central" text-anchor="middle" style="font-size:12.5px;font-family:'PingFang SC', 'Microsoft YaHei', 'Noto Sans CJK SC', -apple-system, sans-serif;font-weight:600;" transform="translate(383.944 161)" fill="rgb(255,255,255)" fill-opacity="0.95">9.5%</text>
<text dominant-baseline="central" text-anchor="middle" style="font-size:12.5px;font-family:'PingFang SC', 'Microsoft YaHei', 'Noto Sans CJK SC', -apple-system, sans-serif;font-weight:600;" transform="translate(452.152 161)" fill="rgb(16,10,4)" fill-opacity="0.92">7.9%</text>
<text dominant-baseline="central" text-anchor="middle" style="font-size:12.5px;font-family:'PingFang SC', 'Microsoft YaHei', 'Noto Sans CJK SC', -apple-system, sans-serif;font-weight:600;" transform="translate(513.696 161)" fill="rgb(16,10,4)" fill-opacity="0.92">7.8%</text>
<text dominant-baseline="central" text-anchor="middle" style="font-size:12.5px;font-family:'PingFang SC', 'Microsoft YaHei', 'Noto Sans CJK SC', -apple-system, sans-serif;font-weight:600;" transform="translate(573.672 161)" fill="rgb(255,255,255)" fill-opacity="0.95">7.5%</text>
<text dominant-baseline="central" text-anchor="middle" style="font-size:12.5px;font-family:'PingFang SC', 'Microsoft YaHei', 'Noto Sans CJK SC', -apple-system, sans-serif;font-weight:600;" transform="translate(717.536 161)" fill="rgb(255,255,255)" fill-opacity="0.95">29.2%</text>
<style ><![CDATA[
.zr1-cls-5:hover {
cursor:pointer;
fill:rgba(255,117,28,1);
}
.zr1-cls-6:hover {
cursor:pointer;
fill:rgba(255,154,72,1);
}
.zr1-cls-7:hover {
cursor:pointer;
fill:rgba(255,196,134,1);
}
.zr1-cls-8:hover {
cursor:pointer;
fill:rgba(255,238,202,1);
}
.zr1-cls-9:hover {
cursor:pointer;
fill:rgba(221,135,81,1);
}
.zr1-cls-10:hover {
cursor:pointer;
fill:rgba(255,255,255,0.22);
}

]]>

</style>
</svg>