<svg width="880" height="600" xmlns="http://www.w3.org/2000/svg" xmlns:xlink="http://www.w3.org/1999/xlink" version="1.1" baseProfile="full" viewBox="0 0 880 600">
<rect width="880" height="600" x="0" y="0" fill="#0d0d0f"></rect>
<path d="M76 195.3L812 195.3A12 12 0 0 1 824 207.3L824 233.3A12 12 0 0 1 812 245.3L76 245.3A12 12 0 0 1 64 233.3L64 207.3A12 12 0 0 1 76 195.3" fill="rgb(255,107,26)" fill-opacity="0.07" class="zr2-cls-11"></path>
<path d="M50.5 40A2.5 2.5 0 0 1 53 42.5L53 59.5A2.5 2.5 0 0 1 50.5 62A2.5 2.5 0 0 1 48 59.5L48 42.5A2.5 2.5 0 0 1 50.5 40" fill="#FF6B1A" class="zr2-cls-12"></path>
<text dominant-baseline="central" text-anchor="start" style="font-size:21px;font-family:'PingFang SC', 'Microsoft YaHei', 'Noto Sans CJK SC', -apple-system, sans-serif;font-weight:700;" y="10.5" transform="translate(65 41)" fill="rgb(255,255,255)" fill-opacity="0.92">同业估值倍数对比</text>
<text dominant-baseline="central" text-anchor="start" style="font-size:11.5px;font-family:'PingFang SC', 'Microsoft YaHei', 'Noto Sans CJK SC', -apple-system, sans-serif;" y="5.75" transform="translate(778.87 50)" fill="rgb(255,255,255)" fill-opacity="0.38">P/E（倍）</text>
<text dominant-baseline="central" text-anchor="start" style="font-size:11.5px;font-family:'PingFang SC', 'Microsoft YaHei', 'Noto Sans CJK SC', -apple-system, sans-serif;" y="5.75" transform="translate(758 104)" fill="rgb(255,255,255)" fill-opacity="0.38">毛利率</text>
<text dominant-baseline="central" text-anchor="end" style="font: normal normal 13px 'PingFang SC', 'Microsoft YaHei', 'Noto Sans CJK SC', -apple-system, sans-serif" transform="translate(134 157.4286)" fill="rgb(255,255,255)" fill-opacity="0.62">Funko</text>
<text dominant-baseline="central" text-anchor="end" style="font-size:13px;font-family:'PingFang SC', 'Microsoft YaHei', 'Noto Sans CJK SC', -apple-system, sans-serif;font-weight:700;" transform="translate(134 220.2857)" fill="rgb(255,255,255)" fill-opacity="0.92">泡泡玛特</text>
<text dominant-baseline="central" text-anchor="end" style="font: normal normal 13px 'PingFang SC', 'Microsoft YaHei', 'Noto Sans CJK SC', -apple-system, sans-serif" transform="translate(134 283.1429)" fill="rgb(255,255,255)" fill-opacity="0.62">开云集团</text>
<text dominant-baseline="central" text-anchor="end" style="font: normal normal 13px 'PingFang SC', 'Microsoft YaHei', 'Noto Sans CJK SC', -apple-system, sans-serif" transform="translate(134 346)" fill="rgb(255,255,255)" fill-opacity="0.62">万代南梦宫</text>
<text dominant-baseline="central" text-anchor="end" style="font: normal normal 13px 'PingFang SC', 'Microsoft YaHei', 'Noto Sans CJK SC', -apple-system, sans-serif" transform="translate(134 408.8571)" fill="rgb(255,255,255)" fill-opacity="0.62">LVMH</text>
<text dominant-baseline="central" text-anchor="end" style="font: normal normal 13px 'PingFang SC', 'Microsoft YaHei', 'Noto Sans CJK SC', -apple-system, sans-serif" transform="translate(134 471.7143)" fill="rgb(255,255,255)" fill-opacity="0.62">迪士尼</text>
<text dominant-baseline="central" text-anchor="end" style="font: normal normal 13px 'PingFang SC', 'Microsoft YaHei', 'Noto Sans CJK SC', -apple-system, sans-serif" transform="translate(134 534.5714)" fill="rgb(255,255,255)" fill-opacity="0.62">乐高</text>
<text dominant-baseline="central" text-anchor="start" style="font-size:9px;font-family:'PingFang SC', 'Microsoft YaHei', 'Noto Sans CJK SC', -apple-system, sans-serif;" transform="translate(758 157.4286)" fill="#FFB37A">●</text>
<text dominant-baseline="central" text-anchor="start" style="font: normal normal 12px 'PingFang SC', 'Microsoft YaHei', 'Noto Sans CJK SC', -apple-system, sans-serif" xml:space="preserve" x="9" transform="translate(758 157.4286)" fill="rgb(255,255,255)" fill-opacity="0.62"> </text>
<text dominant-baseline="central" text-anchor="start" style="font-size:12.5px;font-family:'PingFang SC', 'Microsoft YaHei', 'Noto Sans CJK SC', -apple-system, sans-serif;" x="12.36" transform="translate(758 157.4286)" fill="rgb(255,255,255)" fill-opacity="0.62">50%</text>
<text dominant-baseline="central" text-anchor="start" style="font-size:9px;font-family:'PingFang SC', 'Microsoft YaHei', 'Noto Sans CJK SC', -apple-system, sans-serif;" transform="translate(758 220.2857)" fill="#FFB37A">●</text>
<text dominant-baseline="central" text-anchor="start" style="font: normal normal 12px 'PingFang SC', 'Microsoft YaHei', 'Noto Sans CJK SC', -apple-system, sans-serif" xml:space="preserve" x="9" transform="translate(758 220.2857)" fill="rgb(255,255,255)" fill-opacity="0.62"> </text>
<text dominant-baseline="central" text-anchor="start" style="font-size:12.5px;font-family:'PingFang SC', 'Microsoft YaHei', 'Noto Sans CJK SC', -apple-system, sans-serif;font-weight:700;" x="12.36" transform="translate(758 220.2857)" fill="rgb(255,255,255)" fill-opacity="0.92">72%</text>
<text dominant-baseline="central" text-anchor="start" style="font-size:9px;font-family:'PingFang SC', 'Microsoft YaHei', 'Noto Sans CJK SC', -apple-system, sans-serif;" transform="translate(758 283.1429)" fill="#FFB37A">●</text>
<text dominant-baseline="central" text-anchor="start" style="font: normal normal 12px 'PingFang SC', 'Microsoft YaHei', 'Noto Sans CJK SC', -apple-system, sans-serif" xml:space="preserve" x="9" transform="translate(758 283.1429)" fill="rgb(255,255,255)" fill-opacity="0.62"> </text>
<text dominant-baseline="central" text-anchor="start" style="font-size:12.5px;font-family:'PingFang SC', 'Microsoft YaHei', 'Noto Sans CJK SC', -apple-system, sans-serif;" x="12.36" transform="translate(758 283.1429)" fill="rgb(255,255,255)" fill-opacity="0.62">73%</text>
<text dominant-baseline="central" text-anchor="start" style="font-size:9px;font-family:'PingFang SC', 'Microsoft YaHei', 'Noto Sans CJK SC', -apple-system, sans-serif;" transform="translate(758 346)" fill="#FFB37A">●</text>
<text dominant-baseline="central" text-anchor="start" style="font: normal normal 12px 'PingFang SC', 'Microsoft YaHei', 'Noto Sans CJK SC', -apple-system, sans-serif" xml:space="preserve" x="9" transform="translate(758 346)" fill="rgb(255,255,255)" fill-opacity="0.62"> </text>
<text dominant-baseline="central" text-anchor="start" style="font-size:12.5px;font-family:'PingFang SC', 'Microsoft YaHei', 'Noto Sans CJK SC', -apple-system, sans-serif;" x="12.36" transform="translate(758 346)" fill="rgb(255,255,255)" fill-opacity="0.62">35%</text>
<text dominant-baseline="central" text-anchor="start" style="font-size:9px;font-family:'PingFang SC', 'Microsoft YaHei', 'Noto Sans CJK SC', -apple-system, sans-serif;" transform="translate(758 408.8571)" fill="#FFB37A">●</text>
<text dominant-baseline="central" text-anchor="start" style="font: normal normal 12px 'PingFang SC', 'Microsoft YaHei', 'Noto Sans CJK SC', -apple-system, sans-serif" xml:space="preserve" x="9" transform="translate(758 408.8571)" fill="rgb(255,255,255)" fill-opacity="0.62"> </text>
<text dominant-baseline="central" text-anchor="start" style="font-size:12.5px;font-family:'PingFang SC', 'Microsoft YaHei', 'Noto Sans CJK SC', -apple-system, sans-serif;" x="12.36" transform="translate(758 408.8571)" fill="rgb(255,255,255)" fill-opacity="0.62">70%</text>
<text dominant-baseline="central" text-anchor="start" style="font-size:9px;font-family:'PingFang SC', 'Microsoft YaHei', 'Noto Sans CJK SC', -apple-system, sans-serif;" transform="translate(758 471.7143)" fill="#FFB37A">●</text>
<text dominant-baseline="central" text-anchor="start" style="font: normal normal 12px 'PingFang SC', 'Microsoft YaHei', 'Noto Sans CJK SC', -apple-system, sans-serif" xml:space="preserve" x="9" transform="translate(758 471.7143)" fill="rgb(255,255,255)" fill-opacity="0.62"> </text>
<text dominant-baseline="central" text-anchor="start" style="font-size:12.5px;font-family:'PingFang SC', 'Microsoft YaHei', 'Noto Sans CJK SC', -apple-system, sans-serif;" x="12.36" transform="translate(758 471.7143)" fill="rgb(255,255,255)" fill-opacity="0.62">35%</text>
<text dominant-baseline="central" text-anchor="start" style="font-size:9px;font-family:'PingFang SC', 'Microsoft YaHei', 'Noto Sans CJK SC', -apple-system, sans-serif;" transform="translate(758 534.5714)" fill="#FFB37A">●</text>
<text dominant-baseline="central" text-anchor="start" style="font: normal normal 12px 'PingFang SC', 'Microsoft YaHei', 'Noto Sans CJK SC', -apple-system, sans-serif" xml:space="preserve" x="9" transform="translate(758 534.5714)" fill="rgb(255,255,255)" fill-opacity="0.62"> </text>
<text dominant-baseline="central" text-anchor="start" style="font-size:12.5px;font-family:'PingFang SC', 'Microsoft YaHei', 'Noto Sans CJK SC', -apple-system, sans-serif;" x="12.36" transform="translate(758 534.5714)" fill="rgb(255,255,255)" fill-opacity="0.62">65%</text>
<path d="M150 149.4L307.6 149.4A8 8 0 0 1 315.6 157.4A8 8 0 0 1 307.6 165.4L150 165.4L150 149.4" fill="rgb(255,255,255)" fill-opacity="0.15" ecmeta_series_index="0" ecmeta_data_index="0" ecmeta_ssr_type="chart" class="zr2-cls-13"></path>
<path d="M150 212.3L427.7 212.3A8 8 0 0 1 435.7 220.3A8 8 0 0 1 427.7 228.3L150 228.3L150 212.3" fill="#FF6B1A" filter="url(#zr2-s0)" ecmeta_series_index="0" ecmeta_data_index="1" ecmeta_ssr_type="chart" class="zr2-cls-12"></path>
<path d="M150 275.1L452.5 275.1A8 8 0 0 1 460.5 283.1A8 8 0 0 1 452.5 291.1L150 291.1L150 275.1" fill="rgb(255,255,255)" fill-opacity="0.15" ecmeta_series_index="0" ecmeta_data_index="2" ecmeta_ssr_type="chart" class="zr2-cls-13"></path>
<path d="M150 338L514.6 338A8 8 0 0 1 522.6 346A8 8 0 0 1 514.6 354L150 354L150 338" fill="rgb(255,255,255)" fill-opacity="0.15" ecmeta_series_index="0" ecmeta_data_index="3" ecmeta_ssr_type="chart" class="zr2-cls-13"></path>
<path d="M150 400.9L556 400.9A8 8 0 0 1 564 408.9A8 8 0 0 1 556 416.9L150 416.9L150 400.9" fill="rgb(255,255,255)" fill-opacity="0.15" ecmeta_series_index="0" ecmeta_data_index="4" ecmeta_ssr_type="chart" class="zr2-cls-13"></path>
<path d="M150 463.7L597.4 463.7A8 8 0 0 1 605.4 471.7A8 8 0 0 1 597.4 479.7L150 479.7L150 463.7" fill="rgb(255,255,255)" fill-opacity="0.15" ecmeta_series_index="0" ecmeta_data_index="5" ecmeta_ssr_type="chart" class="zr2-cls-13"></path>
<path d="M150 526.6L659.5 526.6A8 8 0 0 1 667.5 534.6A8 8 0 0 1 659.5 542.6L150 542.6L150 526.6" fill="rgb(255,255,255)" fill-opacity="0.15" ecmeta_series_index="0" ecmeta_data_index="6" ecmeta_ssr_type="chart" class="zr2-cls-13"></path>
<text dominant-baseline="central" text-anchor="start" style="font-size:12.5px;font-family:'PingFang SC', 'Microsoft YaHei', 'Noto Sans CJK SC', -apple-system, sans-serif;font-weight:500;" transform="translate(323.614 157.4286)" fill="rgb(255,255,255)" fill-opacity="0.62">8x</text>
<text dominant-baseline="central" text-anchor="start" style="font-size:13.5px;font-family:'PingFang SC', 'Microsoft YaHei', 'Noto Sans CJK SC', -apple-system, sans-serif;font-weight:700;" transform="translate(443.6842 220.2857)" fill="rgb(255,255,255)" fill-opacity="0.92">13.8x</text>
<text dominant-baseline="central" text-anchor="start" style="font-size:12.5px;font-family:'PingFang SC', 'Microsoft YaHei', 'Noto Sans CJK SC', -apple-system, sans-serif;font-weight:500;" transform="translate(468.5263 283.1429)" fill="rgb(255,255,255)" fill-opacity="0.62">15x</text>
<text dominant-baseline="central" text-anchor="start" style="font-size:12.5px;font-family:'PingFang SC', 'Microsoft YaHei', 'Noto Sans CJK SC', -apple-system, sans-serif;font-weight:500;" transform="translate(530.6316 346)" fill="rgb(255,255,255)" fill-opacity="0.62">18x</text>
<text dominant-baseline="central" text-anchor="start" style="font-size:12.5px;font-family:'PingFang SC', 'Microsoft YaHei', 'Noto Sans CJK SC', -apple-system, sans-serif;font-weight:500;" transform="translate(572.0351 408.8571)" fill="rgb(255,255,255)" fill-opacity="0.62">20x</text>
<text dominant-baseline="central" text-anchor="start" style="font-size:12.5px;font-family:'PingFang SC', 'Microsoft YaHei', 'Noto Sans CJK SC', -apple-system, sans-serif;font-weight:500;" transform="translate(613.4386 471.7143)" fill="rgb(255,255,255)" fill-opacity="0.62">22x</text>
<text dominant-baseline="central" text-anchor="start" style="font-size:12.5px;font-family:'PingFang SC', 'Microsoft YaHei', 'Noto Sans CJK SC', -apple-system, sans-serif;font-weight:500;" transform="translate(675.5439 534.5714)" fill="rgb(255,255,255)" fill-opacity="0.62">25x</text>
<defs >
<filter id="zr2-s0" x="-100%" y="-100%" width="300%" height="300%">
<feDropShadow dx="0" dy="0" stdDeviation="6 6" flood-color="rgb(255,107,26)" flood-opacity="0.45"></feDropShadow>
</filter>
</defs>
<style ><![CDATA[
.zr2-cls-11:hover {
pointer-events:none;
}
.zr2-cls-12:hover {
cursor:pointer;
fill:rgba(255,117,28,1);
}
.zr2-cls-13:hover {
cursor:pointer;
fill:rgba(255,255,255,0.15);
}

]]>

</style>
</svg>