<svg width="880" height="560" xmlns="http://www.w3.org/2000/svg" xmlns:xlink="http://www.w3.org/1999/xlink" version="1.1" baseProfile="full" viewBox="0 0 880 560">
<rect width="880" height="560" x="0" y="0" fill="#0d0d0f"></rect>
<path d="M50.5 40A2.5 2.5 0 0 1 53 42.5L53 59.5A2.5 2.5 0 0 1 50.5 62A2.5 2.5 0 0 1 48 59.5L48 42.5A2.5 2.5 0 0 1 50.5 40" fill="#FF6B1A" class="zr3-cls-14"></path>
<text dominant-baseline="central" text-anchor="start" style="font-size:21px;font-family:'PingFang SC', 'Microsoft YaHei', 'Noto Sans CJK SC', -apple-system, sans-serif;font-weight:700;" y="10.5" transform="translate(65 41)" fill="rgb(255,255,255)" fill-opacity="0.92">分期增速拆解</text>
<path d="M56 504.5L824 504.5" fill="none" pointer-events="visible" stroke="rgb(255,255,255)" stroke-opacity="0.08" class="zr3-cls-15"></path>
<path d="M56 433.5L824 433.5" fill="none" pointer-events="visible" stroke="rgb(255,255,255)" stroke-opacity="0.08" class="zr3-cls-15"></path>
<path d="M56 363.5L824 363.5" fill="none" pointer-events="visible" stroke="rgb(255,255,255)" stroke-opacity="0.08" class="zr3-cls-15"></path>
<path d="M56 293.5L824 293.5" fill="none" pointer-events="visible" stroke="rgb(255,255,255)" stroke-opacity="0.08" class="zr3-cls-15"></path>
<path d="M56 222.5L824 222.5" fill="none" pointer-events="visible" stroke="rgb(255,255,255)" stroke-opacity="0.08" class="zr3-cls-15"></path>
<path d="M56 152.5L824 152.5" fill="none" pointer-events="visible" stroke="rgb(255,255,255)" stroke-opacity="0.08" class="zr3-cls-15"></path>
<path d="M56 124.5L824 124.5" fill="none" pointer-events="visible" stroke="rgb(255,255,255)" stroke-opacity="0.08" class="zr3-cls-15"></path>
<text dominant-baseline="central" text-anchor="middle" style="font-size:12.5px;font-family:'PingFang SC', 'Microsoft YaHei', 'Noto Sans CJK SC', -apple-system, sans-serif;" y="6.25" transform="translate(132.8 516)" fill="rgb(255,255,255)" fill-opacity="0.62">FY24H1</text>
<text dominant-baseline="central" text-anchor="middle" style="font-size:12.5px;font-family:'PingFang SC', 'Microsoft YaHei', 'Noto Sans CJK SC', -apple-system, sans-serif;" y="6.25" transform="translate(286.4 516)" fill="rgb(255,255,255)" fill-opacity="0.62">FY24H2</text>
<text dominant-baseline="central" text-anchor="middle" style="font-size:12.5px;font-family:'PingFang SC', 'Microsoft YaHei', 'Noto Sans CJK SC', -apple-system, sans-serif;" y="6.25" transform="translate(440 516)" fill="rgb(255,255,255)" fill-opacity="0.62">FY25H1</text>
<text dominant-baseline="central" text-anchor="middle" style="font-size:12.5px;font-family:'PingFang SC', 'Microsoft YaHei', 'Noto Sans CJK SC', -apple-system, sans-serif;" y="6.25" transform="translate(593.6 516)" fill="rgb(255,255,255)" fill-opacity="0.62">FY25H2</text>
<text dominant-baseline="central" text-anchor="middle" style="font-size:12.5px;font-family:'PingFang SC', 'Microsoft YaHei', 'Noto Sans CJK SC', -apple-system, sans-serif;" y="6.25" transform="translate(747.2 516)" fill="rgb(255,255,255)" fill-opacity="0.62">FY25Q4</text>
<path d="M122.8 440.7L142.8 440.7A9 9 0 0 1 151.8 449.7L151.8 504L113.8 504L113.8 449.7A9 9 0 0 1 122.8 440.7" fill="#FF6B1A" ecmeta_series_index="0" ecmeta_data_index="0" ecmeta_ssr_type="chart" class="zr3-cls-14"></path>
<path d="M276.4 383.8L296.4 383.8A9 9 0 0 1 305.4 392.8L305.4 504L267.4 504L267.4 392.8A9 9 0 0 1 276.4 383.8" fill="#FF6B1A" ecmeta_series_index="0" ecmeta_data_index="1" ecmeta_ssr_type="chart" class="zr3-cls-14"></path>
<path d="M430 308.7L450 308.7A9 9 0 0 1 459 317.7L459 504L421 504L421 317.7A9 9 0 0 1 430 308.7" fill="#FF6B1A" ecmeta_series_index="0" ecmeta_data_index="2" ecmeta_ssr_type="chart" class="zr3-cls-14"></path>
<path d="M583.6 176.9L603.6 176.9A9 9 0 0 1 612.6 185.9L612.6 504L574.6 504L574.6 185.9A9 9 0 0 1 583.6 176.9" fill="#FF6B1A" ecmeta_series_index="0" ecmeta_data_index="3" ecmeta_ssr_type="chart" class="zr3-cls-14"></path>
<path d="M737.2 360.4L757.2 360.4A9 9 0 0 1 766.2 369.4L766.2 504L728.2 504L728.2 369.4A9 9 0 0 1 737.2 360.4" fill="#FF6B1A" ecmeta_series_index="0" ecmeta_data_index="4" ecmeta_ssr_type="chart" class="zr3-cls-14"></path>
<text dominant-baseline="central" text-anchor="middle" style="font-size:14px;font-family:'PingFang SC', 'Microsoft YaHei', 'Noto Sans CJK SC', -apple-system, sans-serif;font-weight:700;" y="-7" transform="translate(132.8 431.6667)" fill="rgb(255,255,255)" fill-opacity="0.92">45</text>
<text dominant-baseline="central" text-anchor="middle" style="font-size:14px;font-family:'PingFang SC', 'Microsoft YaHei', 'Noto Sans CJK SC', -apple-system, sans-serif;font-weight:700;" y="-7" transform="translate(286.4 374.8074)" fill="rgb(255,255,255)" fill-opacity="0.92">85.4</text>
<text dominant-baseline="central" text-anchor="middle" style="font-size:14px;font-family:'PingFang SC', 'Microsoft YaHei', 'Noto Sans CJK SC', -apple-system, sans-serif;font-weight:700;" y="-7" transform="translate(440 299.6519)" fill="rgb(255,255,255)" fill-opacity="0.92">138.8</text>
<text dominant-baseline="central" text-anchor="middle" style="font-size:14px;font-family:'PingFang SC', 'Microsoft YaHei', 'Noto Sans CJK SC', -apple-system, sans-serif;font-weight:700;" y="-7" transform="translate(593.6 167.9185)" fill="rgb(255,255,255)" fill-opacity="0.92">232.4</text>
<text dominant-baseline="central" text-anchor="middle" style="font-size:14px;font-family:'PingFang SC', 'Microsoft YaHei', 'Noto Sans CJK SC', -apple-system, sans-serif;font-weight:700;" y="-7" transform="translate(747.2 351.4444)" fill="rgb(255,255,255)" fill-opacity="0.92">102</text>
<g clip-path="url(#zr3-c0)">
<path d="M132.8 491.3L286.4 473L440 437.9L593.6 386.1L747.2 454.7" fill="none" pointer-events="visible" stroke="rgb(255,255,255)" stroke-width="2.5" stroke-opacity="0.88" stroke-linejoin="bevel" class="zr3-cls-17"></path>
</g>
<path d="M1 0A1 1 0 1 1 1 -0.1A1 1 0 0 1 1 0" transform="matrix(4,0,0,4,132.8,491.3333)" fill="rgb(255,255,255)" fill-opacity="0.88" stroke="#0d0d0f" stroke-width="0.5" ecmeta_series_index="1" ecmeta_data_index="0" ecmeta_ssr_type="chart" class="zr3-cls-18"></path>
<path d="M1 0A1 1 0 1 1 1 -0.1A1 1 0 0 1 1 0" transform="matrix(4,0,0,4,286.4,473.037)" fill="rgb(255,255,255)" fill-opacity="0.88" stroke="#0d0d0f" stroke-width="0.5" ecmeta_series_index="1" ecmeta_data_index="1" ecmeta_ssr_type="chart" class="zr3-cls-18"></path>
<path d="M1 0A1 1 0 1 1 1 -0.1A1 1 0 0 1 1 0" transform="matrix(4,0,0,4,440,437.8518)" fill="rgb(255,255,255)" fill-opacity="0.88" stroke="#0d0d0f" stroke-width="0.5" ecmeta_series_index="1" ecmeta_data_index="2" ecmeta_ssr_type="chart" class="zr3-cls-18"></path>
<path d="M1 0A1 1 0 1 1 1 -0.1A1 1 0 0 1 1 0" transform="matrix(4,0,0,4,593.6,386.0593)" fill="rgb(255,255,255)" fill-opacity="0.88" stroke="#0d0d0f" stroke-width="0.5" ecmeta_series_index="1" ecmeta_data_index="3" ecmeta_ssr_type="chart" class="zr3-cls-18"></path>
<path d="M1 0A1 1 0 1 1 1 -0.1A1 1 0 0 1 1 0" transform="matrix(4,0,0,4,747.2,454.7408)" fill="rgb(255,255,255)" fill-opacity="0.88" stroke="#0d0d0f" stroke-width="0.5" ecmeta_series_index="1" ecmeta_data_index="4" ecmeta_ssr_type="chart" class="zr3-cls-18"></path>
<text dominant-baseline="central" text-anchor="middle" style="font-size:11.5px;font-family:'PingFang SC', 'Microsoft YaHei', 'Noto Sans CJK SC', -apple-system, sans-serif;font-weight:600;" y="5.75" transform="translate(132.8 505.3333)" fill="rgb(255,255,255)" fill-opacity="0.82" stroke="#0d0d0f" stroke-width="3" paint-order="stroke" stroke-miterlimit="2">9</text>
<text dominant-baseline="central" text-anchor="middle" style="font-size:11.5px;font-family:'PingFang SC', 'Microsoft YaHei', 'Noto Sans CJK SC', -apple-system, sans-serif;font-weight:600;" y="5.75" transform="translate(286.4 487.037)" fill="rgb(255,255,255)" fill-opacity="0.82" stroke="#0d0d0f" stroke-width="3" paint-order="stroke" stroke-miterlimit="2">22</text>
<text dominant-baseline="central" text-anchor="middle" style="font-size:11.5px;font-family:'PingFang SC', 'Microsoft YaHei', 'Noto Sans CJK SC', -apple-system, sans-serif;font-weight:600;" y="5.75" transform="translate(440 451.8518)" fill="rgb(255,255,255)" fill-opacity="0.82" stroke="#0d0d0f" stroke-width="3" paint-order="stroke" stroke-miterlimit="2">47</text>
<text dominant-baseline="central" text-anchor="middle" style="font-size:11.5px;font-family:'PingFang SC', 'Microsoft YaHei', 'Noto Sans CJK SC', -apple-system, sans-serif;font-weight:600;" y="5.75" transform="translate(593.6 400.0593)" fill="rgb(255,255,255)" fill-opacity="0.82" stroke="#0d0d0f" stroke-width="3" paint-order="stroke" stroke-miterlimit="2">83.8</text>
<text dominant-baseline="central" text-anchor="middle" style="font-size:11.5px;font-family:'PingFang SC', 'Microsoft YaHei', 'Noto Sans CJK SC', -apple-system, sans-serif;font-weight:600;" y="5.75" transform="translate(747.2 468.7408)" fill="rgb(255,255,255)" fill-opacity="0.82" stroke="#0d0d0f" stroke-width="3" paint-order="stroke" stroke-miterlimit="2">35</text>
<path d="M-5 -5l249 0l0 22l-249 0Z" transform="translate(588 51)" fill="rgb(0,0,0)" fill-opacity="0" stroke="#ccc" stroke-width="0" class="zr3-cls-15"></path>
<path d="M2 0L12 0A2 2 0 0 1 14 2L14 6A2 2 0 0 1 12 8L2 8A2 2 0 0 1 0 6L0 2A2 2 0 0 1 2 0" transform="translate(588 53)" fill="#FF6B1A" ecmeta_series_index="0" ecmeta_data_index="0" ecmeta_ssr_type="legend" ecmeta_silent="true" class="zr3-cls-15"></path>
<text dominant-baseline="central" text-anchor="start" style="font-size:12px;font-family:'PingFang SC', 'Microsoft YaHei', 'Noto Sans CJK SC', -apple-system, sans-serif;" x="19" y="4" transform="translate(588 53)" fill="rgb(255,255,255)" fill-opacity="0.62">收入（亿元）</text>
<path d="M0 -2l91 0l0 12l-91 0Z" transform="translate(588 53)" fill="none" pointer-events="visible" ecmeta_series_index="0" ecmeta_data_index="0" ecmeta_ssr_type="legend" class="zr3-cls-19"></path>
<path d="M0 4L14 4" transform="translate(700 53)" fill="#000" stroke="rgb(255,255,255)" stroke-width="2" stroke-opacity="0.88" stroke-linecap="butt" stroke-miterlimit="10" class="zr3-cls-15"></path>
<path d="M10.2 4A3.2 3.2 0 1 1 10.2 3.7A3.2 3.2 0 0 1 10.2 4" transform="translate(700 53)" fill="rgb(255,255,255)" fill-opacity="0.88" stroke="#0d0d0f" stroke-width="2" stroke-linecap="butt" stroke-miterlimit="10" class="zr3-cls-15"></path>
<text dominant-baseline="central" text-anchor="start" style="font-size:12px;font-family:'PingFang SC', 'Microsoft YaHei', 'Noto Sans CJK SC', -apple-system, sans-serif;" x="19" y="4" transform="translate(700 53)" fill="rgb(255,255,255)" fill-opacity="0.62">归母净利润（亿元）</text>
<path d="M-1 -2l128 0l0 12l-128 0Z" transform="translate(700 53)" fill="none" pointer-events="visible" ecmeta_series_index="1" ecmeta_data_index="1" ecmeta_ssr_type="legend" class="zr3-cls-19"></path>
<defs >
<clipPath id="zr3-c0">
<path d="M54 122.8l772 0l0 382.5l-772 0Z" fill="#000" class="zr3-cls-16"></path>
</clipPath>
</defs>
<style ><![CDATA[
.zr3-cls-14:hover {
cursor:pointer;
fill:rgba(255,117,28,1);
}
.zr3-cls-15:hover {
pointer-events:none;
}
.zr3-cls-16:hover {
cursor:pointer;
fill:rgba(0,0,0,1);
}
.zr3-cls-17:hover {
cursor:pointer;
}
.zr3-cls-18:hover {
cursor:pointer;
fill:rgba(255,255,255,0.88);
}
.zr3-cls-19:hover {
cursor:pointer;
fill:rgba(0,0,0,0);
}

]]>

</style>
</svg>